# xmcd
#
# Track frame offsets: 
#        150
#        11938
#        21458
#        30915
#        42913
#        51605
#        63810
#        78163
#        90358
#        101865
#        110743
#        120318
#        133873
#        143328
#        154320
#        167970
#        178153
#        187875
#        199418
#        213823
#
# Disc length: 3010 seconds
#
# Revision: 1
# Processed by: cddbd v1.5.2PL0 Copyright (c) Steve Scherf et al.
# Submitted via: ExactAudioCopyFreeDBPlugin 1.0
#
DISCID=150bc014
DTITLE=Zombies - I Love You
DYEAR=1965
DGENRE=Rock
TTITLE0=You Make Me Feel Good
TTITLE1=Leave Me
TTITLE2=Tell Her No
TTITLE3=She's Coming Home
TTITLE4=I Must Move
TTITLE5=Whenever You Re Ready
TTITLE6=I Love You
TTITLE7=Is This The Dream
TTITLE8=Don't Go Away
TTITLE9=Remember You
TTITLE10=Just Out Of Reach
TTITLE11=Indication
TTITLE12=How We Were Before
TTITLE13=Gotta Get A Hold Of Myself
TTITLE14=Going Out Of My Head
TTITLE15=She Does Everything For Me
TTITLE16=I Wanna Her Back
TTITLE17=I'll Call You Mine
TTITLE18=Imagine The Swan
TTITLE19=Conversation Off Floral Street
EXTD=YEAR: 1993
EXTT0=
EXTT1=
EXTT2=
EXTT3=
EXTT4=
EXTT5=
EXTT6=
EXTT7=
EXTT8=
EXTT9=
EXTT10=
EXTT11=
EXTT12=
EXTT13=
EXTT14=
EXTT15=
EXTT16=
EXTT17=
EXTT18=
EXTT19=
PLAYORDER=
